<svg width="62" height="62" viewBox="0 0 62 62" fill="none" xmlns="http://www.w3.org/2000/svg">
<circle cx="1.56072" cy="1.56072" r="1.56072" fill="#0CAEA5"/>
<circle cx="16.2804" cy="1.56072" r="1.56072" fill="#0CAEA5"/>
<circle cx="31.0002" cy="1.56072" r="1.56072" fill="#0CAEA5"/>
<circle cx="45.7194" cy="1.56072" r="1.56072" fill="#0CAEA5"/>
<circle cx="60.4391" cy="1.56072" r="1.56072" fill="#0CAEA5"/>
<circle cx="1.56072" cy="16.2804" r="1.56072" fill="#0CAEA5"/>
<circle cx="16.2804" cy="16.2804" r="1.56072" fill="#0CAEA5"/>
<circle cx="31.0002" cy="16.2804" r="1.56072" fill="#0CAEA5"/>
<circle cx="45.7194" cy="16.2804" r="1.56072" fill="#0CAEA5"/>
<circle cx="60.4391" cy="16.2804" r="1.56072" fill="#0CAEA5"/>
<circle cx="1.56072" cy="30.9999" r="1.56072" fill="#0CAEA5"/>
<circle cx="16.2804" cy="30.9999" r="1.56072" fill="#0CAEA5"/>
<circle cx="31.0002" cy="30.9999" r="1.56072" fill="#0CAEA5"/>
<circle cx="45.7194" cy="30.9999" r="1.56072" fill="#0CAEA5"/>
<circle cx="60.4391" cy="30.9999" r="1.56072" fill="#0CAEA5"/>
<circle cx="1.56072" cy="45.7197" r="1.56072" fill="#0CAEA5"/>
<circle cx="16.2804" cy="45.7197" r="1.56072" fill="#0CAEA5"/>
<circle cx="31.0002" cy="45.7197" r="1.56072" fill="#0CAEA5"/>
<circle cx="45.7194" cy="45.7197" r="1.56072" fill="#0CAEA5"/>
<circle cx="60.4391" cy="45.7197" r="1.56072" fill="#0CAEA5"/>
<circle cx="1.56072" cy="60.4391" r="1.56072" fill="#0CAEA5"/>
<circle cx="16.2804" cy="60.4391" r="1.56072" fill="#0CAEA5"/>
<circle cx="31.0002" cy="60.4391" r="1.56072" fill="#0CAEA5"/>
<circle cx="45.7194" cy="60.4391" r="1.56072" fill="#0CAEA5"/>
<circle cx="60.4391" cy="60.4391" r="1.56072" fill="#0CAEA5"/>
</svg>
